<svg xmlns="http://www.w3.org/2000/svg" width="64" height="64"><path fill="#14263A" d="M51.034 37.045c-7.938-1.047-16.074 3.52-25.011 7.408-6.625 2.887-14.561 6.5-22.062 5.699 5.292 7.717 13.867 13.006 23.711 13.852 6.372.213 12.876-1.347 18.607-4.73-2.791-1.869-4.646-4.998-4.781-8.553l-.01-.525-.004-.223.01-.107c.01-.309.035-.615.074-.924l.011-.099c.043-.313.101-.624.172-.933l.038-.174c.062-.245.133-.49.213-.733.955-2.976 3.158-5.368 5.98-6.597l.049-.021c1.402-.603 2.951-.924 4.578-.876 1.896.06 3.658.604 5.181 1.511l.022.008c.013-.887-2.796-3.458-6.778-3.983zm10.948-11.013c-.844-4.702-3.428-10.157-6.336-13.936-6.184-8.042-15.548-12.096-25.731-12.096-2.81 0-5.585.394-8.255 1.127-10.194 2.899-18.32 10.708-21.66 20.707 12.167-2.107 26.239-2.38 38.139 1.256 5.252 1.606 24.682 9.602 21.037 17.938 3.999-3.184 3.616-10.481 2.806-14.996zm-19.561 4.674s-.821-1.969-2.522-2.736c-1.793-.808-4.59-1.171-6.938-.026.742 1.511 2.452 3.246 4.118 3.632 3.048.706 5.342-.87 5.342-.87z"/></svg>