<svg xmlns="http://www.w3.org/2000/svg" width="1024" height="29.77" viewBox="-133.444 -3.88 1024 29.77" enable-background="new -133.444 -3.88 1024 29.77"><path fill="#1A171B" d="M-107.195 25.026c-2.462 0-4.016.085-5.828.302-.215.042-.13-.473 0-.516 3.324-.349 3.669-.391 3.669-6.997v-6.215h-16.188v6.216c0 6.348.172 6.735 3.67 6.997.086.043.216.558-.042.516-1.296-.175-3.023-.302-4.835-.302-2.418 0-4.749.085-6.562.302-.217.042-.129-.473 0-.516 4.36-.478 4.404-.304 4.404-6.997v-12.95c0-6.734-.044-6.519-4.404-7.037-.129 0-.217-.518 0-.475 1.813.214 4.144.302 6.562.302 1.812 0 3.539-.129 4.835-.302.257-.043.128.475.042.475-3.498.301-3.67.689-3.67 7.037v5.828h16.188v-5.828c0-6.604-.345-6.647-3.669-7.037-.13 0-.215-.518 0-.475 1.812.214 3.366.302 5.828.302 1.77 0 4.273-.129 5.613-.302.214-.043.128.475 0 .475-4.491.389-4.404.604-4.404 7.037v12.95c0 6.432-.086 6.648 4.404 6.997.128.043.214.558 0 .516-1.341-.177-3.845-.303-5.613-.303zm76.459.864c-8.807 0-14.85-6.735-14.85-14.118 0-7.08 6.476-14.979 15.627-14.979 8.85 0 14.892 6.734 14.892 14.074.002 7.121-6.475 15.023-15.669 15.023zm-.173-28.104c-6.431 0-11.181 4.661-11.181 12.561 0 9.587 6.259 14.551 12.347 14.551 6.432 0 11.182-4.663 11.182-12.563-.001-9.585-6.303-14.549-12.348-14.549zm97.824 25.815c-1.511 1.167-4.101 2.289-9.238 2.289-9.583 0-15.583-6.604-15.583-13.988 0-7.08 6.562-15.108 15.757-15.108 3.927 0 8.028 1.598 8.893 2.287.345.217.689 3.282.777 5.915.043.13-.477.13-.477.043-.733-3.41-3.841-7.252-10.187-7.252-6.39 0-11.18 4.62-11.18 12.518 0 9.627 6.303 14.55 12.389 14.55 4.445 0 8.806-2.763 9.152-7.254 0-.083.519-.083.519.086-.132 2.635-.478 5.653-.822 5.914zm83.412 1.425c-2.46 0-4.015.085-5.827.302-.217.042-.131-.473 0-.516 3.323-.349 3.668-.391 3.668-6.997v-6.215h-16.188v6.216c0 6.348.171 6.735 3.669 6.997.085.043.215.558-.042.516-1.296-.175-3.022-.302-4.837-.302-2.418 0-4.749.085-6.562.302-.216.042-.128-.473 0-.516 4.361-.478 4.404-.304 4.404-6.997v-12.95c0-6.734-.043-6.519-4.404-7.037-.128 0-.216-.518 0-.475 1.813.214 4.144.302 6.562.302 1.813 0 3.541-.129 4.837-.302.257-.043.128.475.042.475-3.496.301-3.669.689-3.669 7.037v5.828h16.188v-5.828c0-6.604-.345-6.647-3.668-7.037-.131 0-.217-.518 0-.475 1.812.214 3.365.302 5.827.302 1.771 0 4.274-.129 5.613-.302.214-.043.13.475 0 .475-4.49.389-4.404.604-4.404 7.037v12.95c0 6.432-.086 6.648 4.404 6.997.13.043.214.558 0 .516-1.339-.177-3.843-.303-5.613-.303zm85.612-.562c-.214.689-.388.779-.993.779-1.855 0-5.095-.217-8.808-.217-5.093 0-9.453.085-13.166.302-.173 0-.258-.302-.129-.516l19.168-26.076h-10.49c-6.131 0-6.391.907-6.865 3.583 0 .043-.518.086-.518 0 .086-.345.129-1.683.129-2.503 0-.95-.085-1.9-.173-2.46 2.288.171 6.649.303 9.757.303 5.095 0 8.85-.086 12.562-.303.173-.044.258.303.131.475l-19.039 25.902h11.223c6.823 0 6.952-.821 7.469-4.446 0-.045.518-.045.518.043.001 1.378-.474 4.271-.776 5.134zm77.456 0c-.215.689-.39.779-1.037.779-1.554 0-4.231-.217-7.339-.217-4.231 0-8.549.085-11.612.302-.258.042-.131-.473-.045-.516 4.363-.478 4.448-.304 4.448-6.997v-12.949c0-6.734-.085-6.519-4.448-7.037-.085 0-.213-.518.045-.475 3.063.214 7.164.302 11.438.302 3.108 0 5.958-.129 8.248-.302-.175.604-.261 1.424-.261 2.33 0 .432.045 1.295.086 1.641 0 .128-.516.086-.516 0-.348-1.944-1.209-2.592-6.821-2.592h-4.146c-.17 1.079-.257 3.108-.257 5.915v5.697h4.49c4.748 0 4.401-.429 4.661-1.596.042-.042.561-.084.517 0-.172.648-.301 1.728-.301 2.722 0 .474.042 1.382.085 1.726.042.131-.478.086-.478 0-.257-1.38-.474-1.986-4.486-1.986h-4.49v6.433c0 5.783.776 6.305 2.762 6.305h2.203c6.561 0 6.95-.649 7.552-3.539.044-.043.519-.043.519.083-.171 1.078-.558 3.065-.817 3.971zm65.151.562c-2.458 0-4.404.085-6.173.302-.257.042-.129-.473-.042-.516 3.839-.391 4.056-.349 4.056-6.997v-12.949c0-6.647-.217-6.604-4.056-7.037-.086 0-.215-.518.042-.475 1.771.214 3.714.302 6.173.302 1.771 0 3.927-.129 5.222-.302.216-.043.13.475 0 .475-3.972.345-4.014.648-4.014 7.037v12.95c0 6.39.042 6.693 4.014 6.997.13.043.216.558 0 .516-1.293-.177-3.451-.303-5.222-.303zm89.121-25.255c0 .691.041 1.727.128 2.287 0 .086-.518.043-.518 0-.348-1.942-1.037-3.02-6.647-3.02h-4.575v18.777c0 6.39.04 6.693 4.055 6.997.131.043.215.558-.041.516-1.296-.175-3.41-.302-5.181-.302-2.46 0-4.403.085-6.217.302-.215.042-.129-.473 0-.516 3.841-.391 4.016-.349 4.016-6.997v-18.776h-4.75c-5.439 0-6.344.993-6.822 3.02 0 .043-.516.086-.474 0 .173-.906.215-2.374.215-3.625 0-.778-.086-1.598-.215-2.246 0-.129.519-.043.519 0 .3 1.468.516 1.641 6.777 1.641h12.693c6.259 0 6.605-.13 6.95-1.641 0-.043.516-.129.476 0-.219.993-.389 2.116-.389 3.583zm63.811 26.119c-2.935 0-5.31-.953-7.511-2.847-.214-.217.173-2.592.259-5.571 0-.13.517-.13.517-.042.304 4.49 2.679 7.468 7.125 7.468 2.937 0 5.7-1.686 5.7-5.226 0-7.165-12.609-7.207-12.609-15.065 0-3.886 3.37-7.813 8.118-7.813 2.418 0 4.016.518 5.439 1.337.302.172.519 1.771.519 4.576 0 .129-.474.129-.519.043-.52-3.238-2.634-4.964-5.742-4.964-2.763 0-5.223 1.771-5.223 4.532 0 6.864 12.39 6.734 12.39 14.981-.002 4.664-3.5 8.591-8.463 8.591zm101.721-21.024l-8.463 20.852c-.042.128-.39.172-.476-.041l-6.43-18.655-7.988 18.696c-.041.128-.387.172-.475-.041l-8.114-20.811c-2.03-5.223-2.722-6.734-6.132-7.037-.086 0-.174-.518.042-.475 1.209.172 2.85.302 4.491.302 2.286 0 5.138-.086 6.775-.302.217-.043.086.475 0 .475-2.069.172-3.149.518-3.149 1.727 0 .906.993 3.842 1.555 5.31l6.086 15.669 6.345-15.109-.216-.561c-1.812-5.31-2.547-6.734-5.826-7.037-.085 0-.174-.519.042-.475 1.21.172 2.849.303 4.489.303 2.286 0 5.482-.087 7.123-.303.217-.043.13.475.045.475-2.722.216-3.584.604-3.584 1.942 0 .949.432 2.547 1.295 5.095l5.182 15.714 6.129-15.931c.99-2.547 1.511-3.928 1.511-5.051 0-1.122-.69-1.554-2.849-1.77-.088 0-.217-.519.045-.475 1.206.172 2.458.303 4.141.303 2.289 0 2.289-.087 3.973-.303.217-.043.086.475 0 .475-2.677.262-3.583 2.074-5.567 7.039zm83.755 20.46c-1.296-.174-3.065-.301-4.835-.301-2.46 0-4.661.083-6.433.301-.216.043-.132-.473-.045-.515 2.072-.216 3.066-.305 3.066-1.514 0-1.293-.818-3.322-1.597-5.484l-1.294-3.538h-9.715l-1.512 3.538c-1.08 2.595-1.857 4.277-1.857 5.484 0 1.037.865 1.339 2.851 1.514.129.042.216.558 0 .515-1.296-.174-2.287-.301-4.057-.301-2.462 0-2.506.083-4.274.301-.217.043-.129-.473-.045-.515 2.896-.216 4.019-2.031 6.132-6.998l9.106-20.849c.086-.172.432-.172.52 0l7.771 20.849c1.942 5.312 2.721 6.735 6.261 6.998.085.044.216.558-.043.515zm-15.542-23.483l-4.923 11.57h9.024l-4.101-11.57zm95.377 23.183c-2.459 0-4.014.085-5.83.302-.214.042-.128-.473 0-.516 3.325-.349 3.67-.391 3.67-6.997v-6.215h-16.187v6.216c0 6.348.173 6.735 3.668 6.997.087.043.216.558-.04.516-1.296-.175-3.023-.302-4.835-.302-2.419 0-4.752.085-6.563.302-.214.042-.131-.473 0-.516 4.36-.478 4.403-.304 4.403-6.997v-12.95c0-6.734-.043-6.519-4.403-7.037-.131 0-.214-.518 0-.475 1.812.214 4.144.302 6.563.302 1.812 0 3.539-.129 4.835-.302.256-.043.128.475.04.475-3.495.301-3.668.689-3.668 7.037v5.828h16.187v-5.828c0-6.604-.345-6.647-3.67-7.037-.128 0-.214-.518 0-.475 1.816.214 3.37.302 5.83.302 1.771 0 4.276-.129 5.612-.302.216-.043.13.475 0 .475-4.489.389-4.403.604-4.403 7.037v12.95c0 6.432-.086 6.648 4.403 6.997.13.043.216.558 0 .516-1.336-.177-3.843-.303-5.612-.303zm89.585-20.16v12.95c0 2.16.13 6.091.346 7.903 0 .127-.346.172-.521-.042l-20.979-22.581v14.719c0 5.875.045 6.693 4.059 6.997.087.043.215.558-.042.516-1.296-.175-2.462-.302-4.233-.302-2.458 0-3.453.085-5.222.302-.257.042-.13-.473-.042-.516 3.843-.391 4.057-.863 4.057-6.997v-15.151c0-1.986-2.764-4.575-4.833-4.835-.087 0-.175-.518.042-.475 1.77.214 3.368.302 5.829.302l20.116 21.801v-14.591c0-6.13-.174-6.604-4.06-7.037-.084 0-.17-.518.045-.475 1.771.214 2.764.302 5.224.302 1.771 0 2.934-.129 4.229-.302.257-.043.175.475.041.475-4.014.346-4.056 1.166-4.056 7.037z"/></svg>